<?xml version="1.0" encoding="utf-8"?>
<svg xmlns="http://www.w3.org/2000/svg" viewBox="0 0 500 500" xmlns:bx="https://boxy-svg.com" width="500px" height="500px"><defs><bx:export><bx:file format="webp" excluded="true"/><bx:file format="svg"/></bx:export></defs><g id="katman_1"><g transform="matrix(2.967924, 0, 0, 2.967924, -194.260483, -291.335144)" style=""><path class="st0" d="M 229.273 201.981 C 220.673 236.651 189.353 262.351 152.023 262.351 C 133.723 262.351 116.873 256.171 103.423 245.791 L 113.213 225.341 C 123.453 234.681 137.073 240.371 152.023 240.371 C 209.273 240.381 182.313 197.531 229.273 201.981" style="clip-rule: evenodd; fill: rgb(253, 194, 0); fill-rule: evenodd;"/><path class="st0" d="M 178.353 132.301 C 175.393 130.741 171.693 129.491 166.523 128.111 C 161.503 126.761 157.063 125.951 153.103 125.551 C 144.713 125.381 136.193 127.031 128.143 130.661 C 78.063 163.301 111.603 189.051 74.573 205.891 C 64.643 171.151 79.173 132.821 111.923 114.021 C 133.633 101.551 159.343 100.751 181.433 109.841 C 180.503 110.131 180.463 110.171 181.553 109.891 C 190.433 113.561 198.733 118.831 205.943 125.601 C 196.773 127.371 187.493 129.571 178.353 132.301" style="clip-rule: evenodd; fill: rgb(253, 194, 0); fill-rule: evenodd;"/><path class="st1" d="M 83.713 259.381 C 98.173 193.281 149.073 163.621 225.193 159.181 C 226.683 164.991 227.673 171.071 228.303 177.341 L 228.053 190.471 C 161.763 180.571 112.783 201.981 83.713 259.381" style="clip-rule: evenodd; fill: rgb(4, 0, 7); fill-rule: evenodd;"/><path class="st1" d="M 90.253 209.491 C 102.673 169.431 139.003 140.651 208.453 127.521 L 217.593 139.841 C 218.733 141.851 219.763 143.911 220.693 146.031 C 169.463 149.651 126.733 172.481 90.253 209.491" style="clip-rule: evenodd; fill: rgb(4, 0, 7); fill-rule: evenodd;"/></g></g></svg>